<svg width="165" height="60" viewBox="0 0 165 60" fill="none" xmlns="http://www.w3.org/2000/svg">
<path d="M65.676 9.86967V11H61.2853V9.86967H65.676ZM61.6886 2.72988V11H60.2629V2.72988H61.6886ZM65.1023 6.18333V7.29662H61.2853V6.18333H65.1023ZM65.6476 2.72988V3.86588H61.2853V2.72988H65.6476ZM67.7492 4.85421L68.9193 6.89334L70.1121 4.85421H71.6173L69.7542 7.8703L71.6911 11H70.1859L68.9363 8.87567L67.6867 11H66.1758L68.107 7.8703L66.2497 4.85421H67.7492ZM74.9515 10.023C75.1749 10.023 75.3756 9.97949 75.5535 9.89239C75.7353 9.80151 75.8811 9.67655 75.9909 9.51751C76.1045 9.35847 76.167 9.17482 76.1783 8.96655H77.4677C77.4601 9.36415 77.3428 9.72578 77.1156 10.0514C76.8884 10.3771 76.5873 10.6365 76.2124 10.8296C75.8375 11.0189 75.4229 11.1136 74.9685 11.1136C74.499 11.1136 74.09 11.0341 73.7416 10.875C73.3932 10.7122 73.1036 10.4888 72.8726 10.2048C72.6416 9.92079 72.4674 9.59325 72.35 9.22215C72.2364 8.85106 72.1796 8.45345 72.1796 8.02934V7.83054C72.1796 7.40643 72.2364 7.00883 72.35 6.63774C72.4674 6.26285 72.6416 5.93341 72.8726 5.64941C73.1036 5.36541 73.3932 5.14389 73.7416 4.98485C74.09 4.82202 74.4971 4.74061 74.9628 4.74061C75.4551 4.74061 75.8868 4.83906 76.2579 5.03597C76.629 5.22909 76.9205 5.49984 77.1326 5.84821C77.3484 6.1928 77.4601 6.59419 77.4677 7.05238H76.1783C76.167 6.82518 76.1102 6.6207 76.0079 6.43894C75.9095 6.25339 75.7694 6.10571 75.5876 5.99589C75.4097 5.88608 75.1957 5.83117 74.9458 5.83117C74.6694 5.83117 74.4403 5.88797 74.2585 6.00157C74.0767 6.11139 73.9347 6.26285 73.8325 6.45598C73.7303 6.64531 73.6564 6.85926 73.611 7.09782C73.5693 7.33259 73.5485 7.57684 73.5485 7.83054V8.02934C73.5485 8.28305 73.5693 8.52919 73.611 8.76775C73.6526 9.00631 73.7246 9.22026 73.8268 9.40959C73.9328 9.59514 74.0767 9.74471 74.2585 9.85831C74.4403 9.96813 74.6712 10.023 74.9515 10.023ZM81.2279 11.1136C80.7735 11.1136 80.3626 11.0398 79.9953 10.8921C79.6318 10.7406 79.3213 10.5305 79.0638 10.2616C78.8101 9.99274 78.6151 9.67655 78.4788 9.31303C78.3424 8.94951 78.2743 8.55759 78.2743 8.13726V7.91006C78.2743 7.42915 78.3443 6.99369 78.4844 6.60366C78.6245 6.21363 78.8196 5.8804 79.0695 5.60397C79.3194 5.32376 79.6148 5.10981 79.9556 4.96213C80.2964 4.81445 80.6656 4.74061 81.0632 4.74061C81.5024 4.74061 81.8868 4.81445 82.2162 4.96213C82.5457 5.10981 82.8183 5.31808 83.0341 5.58693C83.2538 5.852 83.4166 6.16819 83.5226 6.5355C83.6324 6.9028 83.6873 7.30798 83.6873 7.75102V8.33607H78.9388V7.35342H82.3355V7.2455C82.3279 6.99937 82.2787 6.76838 82.1878 6.55254C82.1007 6.3367 81.9663 6.16251 81.7845 6.02997C81.6028 5.89744 81.3604 5.83117 81.0575 5.83117C80.8303 5.83117 80.6277 5.8804 80.4497 5.97885C80.2755 6.07352 80.1298 6.21173 80.0124 6.3935C79.895 6.57526 79.8041 6.79488 79.7397 7.05238C79.6791 7.30609 79.6488 7.59198 79.6488 7.91006V8.13726C79.6488 8.40612 79.6848 8.65604 79.7568 8.88703C79.8325 9.11423 79.9423 9.31303 80.0862 9.48343C80.2301 9.65383 80.4043 9.78826 80.6088 9.88671C80.8133 9.98138 81.0461 10.0287 81.3074 10.0287C81.6369 10.0287 81.9303 9.96245 82.1878 9.82991C82.4453 9.69738 82.6687 9.50994 82.8581 9.26759L83.5794 9.96623C83.4469 10.1594 83.2746 10.3449 83.0625 10.5229C82.8505 10.6971 82.5911 10.8391 82.2844 10.9489C81.9814 11.0587 81.6293 11.1136 81.2279 11.1136ZM86.2206 2.27547V11H84.8461V2.27547H86.2206ZM89.1856 2.27547V11H87.8111V2.27547H89.1856ZM93.3945 11.1136C92.9401 11.1136 92.5293 11.0398 92.162 10.8921C91.7984 10.7406 91.4879 10.5305 91.2304 10.2616C90.9767 9.99274 90.7817 9.67655 90.6454 9.31303C90.5091 8.94951 90.4409 8.55759 90.4409 8.13726V7.91006C90.4409 7.42915 90.511 6.99369 90.6511 6.60366C90.7912 6.21363 90.9862 5.8804 91.2361 5.60397C91.486 5.32376 91.7814 5.10981 92.1222 4.96213C92.463 4.81445 92.8322 4.74061 93.2298 4.74061C93.6691 4.74061 94.0534 4.81445 94.3828 4.96213C94.7123 5.10981 94.9849 5.31808 95.2008 5.58693C95.4204 5.852 95.5832 6.16819 95.6893 6.5355C95.7991 6.9028 95.854 7.30798 95.854 7.75102V8.33607H91.1055V7.35342H94.5021V7.2455C94.4946 6.99937 94.4453 6.76838 94.3544 6.55254C94.2674 6.3367 94.1329 6.16251 93.9512 6.02997C93.7694 5.89744 93.5271 5.83117 93.2241 5.83117C92.9969 5.83117 92.7943 5.8804 92.6164 5.97885C92.4422 6.07352 92.2964 6.21173 92.179 6.3935C92.0616 6.57526 91.9707 6.79488 91.9064 7.05238C91.8458 7.30609 91.8155 7.59198 91.8155 7.91006V8.13726C91.8155 8.40612 91.8514 8.65604 91.9234 8.88703C91.9991 9.11423 92.1089 9.31303 92.2528 9.48343C92.3967 9.65383 92.5709 9.78826 92.7754 9.88671C92.9799 9.98138 93.2128 10.0287 93.474 10.0287C93.8035 10.0287 94.097 9.96245 94.3544 9.82991C94.6119 9.69738 94.8354 9.50994 95.0247 9.26759L95.7461 9.96623C95.6135 10.1594 95.4412 10.3449 95.2292 10.5229C95.0171 10.6971 94.7577 10.8391 94.451 10.9489C94.1481 11.0587 93.7959 11.1136 93.3945 11.1136ZM98.2793 6.16629V11H96.9105V4.85421H98.1998L98.2793 6.16629ZM98.0351 7.6999L97.5921 7.69422C97.5958 7.25875 97.6564 6.85926 97.7738 6.49574C97.895 6.13221 98.0616 5.81981 98.2737 5.55853C98.4895 5.29725 98.747 5.09656 99.0461 4.95645C99.3453 4.81255 99.6785 4.74061 100.046 4.74061C100.341 4.74061 100.608 4.78226 100.847 4.86557C101.089 4.94509 101.295 5.07573 101.466 5.25749C101.64 5.43925 101.773 5.67592 101.863 5.96749C101.954 6.25528 102 6.60934 102 7.02966V11H100.625V7.02398C100.625 6.72862 100.582 6.49574 100.495 6.32534C100.411 6.15115 100.288 6.02808 100.125 5.95613C99.9663 5.8804 99.7675 5.84253 99.5289 5.84253C99.2942 5.84253 99.084 5.89176 98.8985 5.99021C98.7129 6.08867 98.5558 6.22309 98.427 6.3935C98.3021 6.5639 98.2055 6.7608 98.1373 6.98422C98.0692 7.20763 98.0351 7.44619 98.0351 7.6999ZM106.214 4.85421V5.85389H102.75V4.85421H106.214ZM103.749 3.349H105.118V9.30167C105.118 9.49101 105.145 9.63679 105.198 9.73903C105.254 9.83749 105.332 9.90375 105.431 9.93783C105.529 9.97191 105.644 9.98895 105.777 9.98895C105.872 9.98895 105.963 9.98327 106.05 9.97191C106.137 9.96055 106.207 9.94919 106.26 9.93783L106.265 10.983C106.152 11.017 106.019 11.0473 105.868 11.0738C105.72 11.1003 105.55 11.1136 105.357 11.1136C105.042 11.1136 104.764 11.0587 104.522 10.9489C104.279 10.8353 104.09 10.6516 103.954 10.3979C103.817 10.1442 103.749 9.80719 103.749 9.38687V3.349Z" fill="black"/>
<rect width="15.7873" height="15.7873" transform="translate(36.6135 19.9143)" fill="#219653"/>
<path d="M44.5072 30.7097L46.9082 30.0668L47.9114 33.3335L44.5072 30.7097ZM50.0328 26.4874H45.8064L44.5072 22.2824L43.2081 26.4874H38.9817L42.4023 29.0938L41.1031 33.2987L44.5237 30.6924L46.6286 29.0938L50.0328 26.4874Z" fill="white"/>
<rect width="15.7873" height="15.7873" transform="translate(55.5583 19.9143)" fill="#219653"/>
<path d="M63.4518 30.7097L65.8528 30.0668L66.8559 33.3335L63.4518 30.7097ZM68.9774 26.4874H64.751L63.4518 22.2824L62.1527 26.4874H57.9263L61.3468 29.0938L60.0477 33.2987L63.4683 30.6924L65.5732 29.0938L68.9774 26.4874Z" fill="white"/>
<rect width="15.7873" height="15.7873" transform="translate(74.5029 19.9143)" fill="#219653"/>
<path d="M82.3966 30.7097L84.7976 30.0668L85.8008 33.3335L82.3966 30.7097ZM87.9222 26.4874H83.6958L82.3966 22.2824L81.0975 26.4874H76.8711L80.2917 29.0938L78.9925 33.2987L82.4131 30.6924L84.518 29.0938L87.9222 26.4874Z" fill="white"/>
<rect width="15.7873" height="15.7873" transform="translate(93.4478 19.9143)" fill="#219653"/>
<path d="M101.341 30.7097L103.742 30.0668L104.745 33.3335L101.341 30.7097ZM106.867 26.4874H102.64L101.341 22.2824L100.042 26.4874H95.8157L99.2362 29.0938L97.9371 33.2987L101.358 30.6924L103.463 29.0938L106.867 26.4874Z" fill="white"/>
<rect width="15.7873" height="15.7873" transform="translate(112.392 19.9143)" fill="#219653"/>
<path d="M120.286 30.7097L122.687 30.0668L123.69 33.3335L120.286 30.7097ZM125.812 26.4874H121.585L120.286 22.2824L118.987 26.4874H114.76L118.181 29.0938L116.882 33.2987L120.302 30.6924L122.407 29.0938L125.812 26.4874Z" fill="white"/>
<path d="M4.14398 49.711H1.81517L1.80381 49.1203H3.80886C4.21782 49.1203 4.5662 49.0616 4.85399 48.9442C5.14177 48.8268 5.35951 48.6526 5.50719 48.4216C5.65866 48.1868 5.73439 47.8991 5.73439 47.5583C5.73439 47.2099 5.66055 46.9221 5.51287 46.6949C5.36519 46.4639 5.14367 46.2935 4.84831 46.1837C4.55295 46.0739 4.18185 46.019 3.73502 46.019H1.99693V53.687H1.29829V45.4169H3.73502C4.15534 45.4169 4.53212 45.4585 4.86535 45.5418C5.19858 45.6252 5.48258 45.7558 5.71735 45.9338C5.95213 46.1117 6.1301 46.3371 6.25127 46.6097C6.37623 46.8785 6.43872 47.2004 6.43872 47.5753C6.43872 47.9161 6.36298 48.2247 6.21151 48.5011C6.06005 48.7738 5.8461 48.9972 5.56967 49.1714C5.29703 49.3418 4.96948 49.4478 4.58703 49.4895L4.14398 49.711ZM4.09286 53.687H1.59365L1.95149 53.0906H4.09286C4.50182 53.0906 4.8502 53.0224 5.13799 52.8861C5.42956 52.746 5.65298 52.5472 5.80823 52.2897C5.96349 52.0322 6.04111 51.7255 6.04111 51.3696C6.04111 51.0553 5.97295 50.7732 5.83663 50.5232C5.70031 50.2733 5.49204 50.0764 5.21183 49.9325C4.93161 49.7848 4.57567 49.711 4.14398 49.711H2.69558L2.70694 49.1203H4.75743L4.88239 49.3304C5.25348 49.3683 5.57724 49.4838 5.85367 49.6769C6.13389 49.8662 6.34973 50.1067 6.5012 50.3983C6.65645 50.6898 6.73408 51.0098 6.73408 51.3582C6.73408 51.858 6.62237 52.2822 6.39896 52.6305C6.17933 52.9751 5.87071 53.2383 5.47311 53.4201C5.07929 53.598 4.61921 53.687 4.09286 53.687ZM12.0108 52.5851V49.4156C12.0108 49.1241 11.9502 48.8722 11.8291 48.6602C11.7079 48.4481 11.5299 48.2853 11.2951 48.1717C11.0604 48.0581 10.7707 48.0013 10.4261 48.0013C10.108 48.0013 9.82401 48.0581 9.57409 48.1717C9.32796 48.2815 9.13294 48.4311 8.98905 48.6204C8.84894 48.806 8.77889 49.0123 8.77889 49.2395L8.09728 49.2339C8.09728 49.0029 8.15408 48.7795 8.26769 48.5636C8.38129 48.3478 8.54222 48.1547 8.75049 47.9843C8.95876 47.8139 9.20678 47.6794 9.49457 47.581C9.78615 47.4787 10.1061 47.4276 10.4545 47.4276C10.8938 47.4276 11.28 47.5015 11.6132 47.6491C11.9502 47.7968 12.2134 48.0183 12.4027 48.3137C12.5921 48.6091 12.6867 48.9802 12.6867 49.427V52.3976C12.6867 52.6097 12.7019 52.8293 12.7322 53.0565C12.7663 53.2837 12.8136 53.4712 12.8742 53.6189V53.687H12.1528C12.1074 53.5507 12.0714 53.3803 12.0449 53.1758C12.0222 52.9675 12.0108 52.7706 12.0108 52.5851ZM12.1699 50.1086L12.1812 50.6312H10.8464C10.498 50.6312 10.1856 50.6633 9.90921 50.7277C9.63657 50.7883 9.40558 50.8792 9.21625 51.0004C9.02692 51.1177 8.88113 51.2597 8.77889 51.4264C8.68043 51.593 8.63121 51.7823 8.63121 51.9944C8.63121 52.214 8.68611 52.4147 8.79593 52.5964C8.90953 52.7782 9.06857 52.924 9.27305 53.0338C9.48132 53.1398 9.72745 53.1928 10.0115 53.1928C10.3901 53.1928 10.7234 53.1228 11.0111 52.9827C11.3027 52.8426 11.5432 52.6589 11.7325 52.4317C11.9218 52.2045 12.0487 51.9565 12.1131 51.6876L12.4084 52.0796C12.3592 52.2689 12.2683 52.4639 12.1358 52.6646C12.007 52.8615 11.8385 53.0471 11.6303 53.2212C11.422 53.3917 11.1759 53.5318 10.8919 53.6416C10.6116 53.7476 10.2936 53.8006 9.93761 53.8006C9.53623 53.8006 9.18596 53.7249 8.88681 53.5734C8.59145 53.4219 8.36046 53.2156 8.19384 52.9543C8.03102 52.6892 7.9496 52.3901 7.9496 52.0568C7.9496 51.7539 8.01398 51.4832 8.14272 51.2446C8.27147 51.0023 8.45702 50.7978 8.69937 50.6312C8.9455 50.4608 9.24086 50.332 9.58545 50.2449C9.93383 50.154 10.3239 50.1086 10.7555 50.1086H12.1699ZM18.1907 52.1193C18.1907 51.9527 18.149 51.788 18.0657 51.6252C17.9824 51.4623 17.8215 51.3128 17.5829 51.1764C17.3482 51.0401 17.0017 50.9246 16.5435 50.83C16.2027 50.7542 15.8979 50.669 15.629 50.5744C15.3639 50.4797 15.1405 50.3661 14.9588 50.2336C14.777 50.101 14.6388 49.942 14.5441 49.7564C14.4495 49.5709 14.4021 49.3513 14.4021 49.0975C14.4021 48.8703 14.4513 48.6564 14.5498 48.4557C14.652 48.2512 14.7959 48.0732 14.9815 47.9218C15.1708 47.7665 15.398 47.6454 15.6631 47.5583C15.9319 47.4712 16.233 47.4276 16.5662 47.4276C17.0395 47.4276 17.4447 47.509 17.7817 47.6719C18.1225 47.8309 18.3819 48.0486 18.5599 48.3251C18.7417 48.6015 18.8325 48.9139 18.8325 49.2623H18.1566C18.1566 49.0502 18.0941 48.8495 17.9692 48.6602C17.848 48.4709 17.6681 48.3156 17.4296 48.1944C17.1948 48.0732 16.907 48.0127 16.5662 48.0127C16.214 48.0127 15.9282 48.0657 15.7085 48.1717C15.4889 48.2777 15.328 48.4122 15.2257 48.575C15.1273 48.7378 15.078 48.9063 15.078 49.0805C15.078 49.2168 15.0989 49.3418 15.1405 49.4554C15.186 49.5652 15.2655 49.6674 15.3791 49.7621C15.4965 49.8568 15.6631 49.9458 15.8789 50.0291C16.0948 50.1124 16.375 50.1938 16.7196 50.2733C17.2156 50.3831 17.6208 50.5176 17.9351 50.6766C18.2532 50.8318 18.488 51.025 18.6394 51.256C18.7909 51.4832 18.8666 51.7596 18.8666 52.0852C18.8666 52.339 18.8136 52.5718 18.7076 52.7839C18.6016 52.9922 18.4482 53.172 18.2475 53.3235C18.0506 53.475 17.812 53.5923 17.5318 53.6757C17.2554 53.759 16.9449 53.8006 16.6003 53.8006C16.0815 53.8006 15.6423 53.7154 15.2825 53.545C14.9266 53.3708 14.6558 53.1436 14.4703 52.8634C14.2885 52.5794 14.1976 52.2784 14.1976 51.9603H14.8736C14.8963 52.2784 14.9966 52.5302 15.1746 52.7157C15.3526 52.8975 15.5703 53.0262 15.8278 53.102C16.0891 53.1777 16.3466 53.2156 16.6003 53.2156C16.9487 53.2156 17.2402 53.1644 17.475 53.0622C17.7098 52.96 17.8878 52.8255 18.0089 52.6589C18.1301 52.4923 18.1907 52.3124 18.1907 52.1193ZM22.7802 53.8006C22.3788 53.8006 22.0096 53.7268 21.6726 53.5791C21.3393 53.4314 21.0478 53.2231 20.7978 52.9543C20.5517 52.6854 20.3605 52.3674 20.2241 52C20.0916 51.6289 20.0253 51.2238 20.0253 50.7845V50.5403C20.0253 50.0669 20.0954 49.639 20.2355 49.2566C20.3756 48.8741 20.5687 48.5466 20.8149 48.2739C21.061 48.0013 21.3412 47.793 21.6555 47.6491C21.9736 47.5015 22.3068 47.4276 22.6552 47.4276C23.0452 47.4276 23.3917 47.4977 23.6946 47.6378C23.9976 47.7741 24.2513 47.9691 24.4558 48.2228C24.664 48.4727 24.8212 48.77 24.9272 49.1146C25.0332 49.4554 25.0863 49.8322 25.0863 50.2449V50.6596H20.4343V50.0802H24.4103V50.0007C24.4028 49.6561 24.3327 49.3342 24.2002 49.0351C24.0714 48.7321 23.8783 48.486 23.6208 48.2967C23.3633 48.1073 23.0414 48.0127 22.6552 48.0127C22.3674 48.0127 22.1023 48.0732 21.86 48.1944C21.6214 48.3156 21.4151 48.4898 21.2409 48.717C21.0705 48.9404 20.9379 49.2074 20.8433 49.5179C20.7524 49.8246 20.707 50.1654 20.707 50.5403V50.7845C20.707 51.1253 20.7562 51.4434 20.8546 51.7388C20.9569 52.0303 21.1008 52.2878 21.2863 52.5112C21.4756 52.7347 21.6991 52.9088 21.9566 53.0338C22.2141 53.1588 22.4981 53.2212 22.8086 53.2212C23.1721 53.2212 23.494 53.155 23.7742 53.0224C24.0544 52.8861 24.3062 52.6722 24.5296 52.3806L24.9556 52.71C24.8231 52.907 24.6565 53.0887 24.4558 53.2553C24.2589 53.4219 24.0222 53.5545 23.7458 53.6529C23.4693 53.7514 23.1475 53.8006 22.7802 53.8006ZM30.4198 52.4942V44.9625H31.1014V53.687H30.4652L30.4198 52.4942ZM26.1541 50.6766V50.5573C26.1541 50.0802 26.209 49.6504 26.3188 49.2679C26.4286 48.8817 26.5858 48.5523 26.7903 48.2796C26.9985 48.0032 27.2485 47.793 27.54 47.6491C27.8316 47.5015 28.161 47.4276 28.5284 47.4276C28.8881 47.4276 29.2062 47.4863 29.4826 47.6037C29.759 47.7211 29.9957 47.8896 30.1926 48.1092C30.3933 48.3288 30.5542 48.5901 30.6754 48.8931C30.8004 49.196 30.8912 49.533 30.948 49.9041V51.4207C30.9026 51.7691 30.8193 52.089 30.6981 52.3806C30.577 52.6684 30.416 52.9202 30.2153 53.136C30.0146 53.3481 29.7723 53.5128 29.4883 53.6302C29.2081 53.7438 28.8843 53.8006 28.517 53.8006C28.1535 53.8006 27.8259 53.7249 27.5343 53.5734C27.2428 53.4219 26.9947 53.208 26.7903 52.9316C26.5858 52.6514 26.4286 52.32 26.3188 51.9376C26.209 51.5551 26.1541 51.1348 26.1541 50.6766ZM26.8357 50.5573V50.6766C26.8357 51.0363 26.8717 51.3696 26.9436 51.6763C27.0156 51.983 27.1254 52.25 27.2731 52.4772C27.4207 52.7044 27.6082 52.8823 27.8354 53.0111C28.0626 53.1398 28.3314 53.2042 28.642 53.2042C29.032 53.2042 29.3595 53.1304 29.6246 52.9827C29.8897 52.8312 30.1017 52.6324 30.2608 52.3863C30.4198 52.1364 30.5353 51.8637 30.6072 51.5684V49.8019C30.5618 49.6012 30.4955 49.3967 30.4084 49.1884C30.3213 48.9802 30.2021 48.7889 30.0506 48.6147C29.9029 48.4368 29.7136 48.2948 29.4826 48.1887C29.2554 48.0789 28.979 48.024 28.6533 48.024C28.339 48.024 28.0683 48.0884 27.8411 48.2171C27.6139 48.3459 27.4245 48.5258 27.2731 48.7567C27.1254 48.9839 27.0156 49.2509 26.9436 49.5576C26.8717 49.8644 26.8357 50.1976 26.8357 50.5573ZM38.4343 45.4169V53.687H37.7414V45.4169H38.4343ZM41.2687 45.4169V46.019H34.9127V45.4169H41.2687ZM42.7 48.5579V53.687H42.0241V47.5412H42.683L42.7 48.5579ZM44.8755 47.4958L44.8584 48.1206C44.7827 48.1092 44.7089 48.0998 44.6369 48.0922C44.565 48.0846 44.4873 48.0808 44.404 48.0808C44.1087 48.0808 43.8493 48.1357 43.6259 48.2455C43.4062 48.3516 43.2207 48.5011 43.0692 48.6943C42.9178 48.8836 42.8023 49.107 42.7227 49.3645C42.6432 49.6182 42.5978 49.8909 42.5864 50.1824L42.3365 50.279C42.3365 49.8776 42.3782 49.5046 42.4615 49.16C42.5448 48.8154 42.6716 48.5144 42.842 48.2569C43.0162 47.9956 43.234 47.793 43.4952 47.6491C43.7603 47.5015 44.0708 47.4276 44.4268 47.4276C44.5139 47.4276 44.5991 47.4352 44.6824 47.4503C44.7695 47.4617 44.8338 47.4768 44.8755 47.4958ZM49.8796 52.267V47.5412H50.5612V53.687H49.908L49.8796 52.267ZM50.0045 51.131L50.3567 51.1196C50.3567 51.5059 50.3113 51.8618 50.2204 52.1875C50.1295 52.5131 49.9875 52.7971 49.7944 53.0395C49.6013 53.2818 49.3513 53.4693 49.0446 53.6018C48.7379 53.7343 48.3687 53.8006 47.937 53.8006C47.6379 53.8006 47.3633 53.759 47.1134 53.6757C46.8673 53.5886 46.6552 53.4522 46.4772 53.2667C46.2993 53.0811 46.1611 52.8407 46.0626 52.5453C45.9679 52.25 45.9206 51.8921 45.9206 51.4718V47.5412H46.5965V51.4832C46.5965 51.8126 46.6325 52.0871 46.7044 52.3068C46.7802 52.5264 46.8824 52.7025 47.0112 52.835C47.1437 52.9675 47.2952 53.0622 47.4656 53.119C47.636 53.1758 47.8196 53.2042 48.0165 53.2042C48.5164 53.2042 48.9102 53.1076 49.198 52.9145C49.4896 52.7214 49.6959 52.4677 49.8171 52.1534C49.9421 51.8353 50.0045 51.4945 50.0045 51.131ZM56.0197 52.1193C56.0197 51.9527 55.978 51.788 55.8947 51.6252C55.8114 51.4623 55.6505 51.3128 55.4119 51.1764C55.1772 51.0401 54.8307 50.9246 54.3725 50.83C54.0317 50.7542 53.7269 50.669 53.458 50.5744C53.1929 50.4797 52.9695 50.3661 52.7878 50.2336C52.606 50.101 52.4678 49.942 52.3731 49.7564C52.2785 49.5709 52.2311 49.3513 52.2311 49.0975C52.2311 48.8703 52.2803 48.6564 52.3788 48.4557C52.481 48.2512 52.6249 48.0732 52.8105 47.9218C52.9998 47.7665 53.227 47.6454 53.4921 47.5583C53.7609 47.4712 54.062 47.4276 54.3952 47.4276C54.8685 47.4276 55.2737 47.509 55.6107 47.6719C55.9515 47.8309 56.2109 48.0486 56.3889 48.3251C56.5707 48.6015 56.6615 48.9139 56.6615 49.2623H55.9856C55.9856 49.0502 55.9231 48.8495 55.7982 48.6602C55.677 48.4709 55.4971 48.3156 55.2586 48.1944C55.0238 48.0732 54.736 48.0127 54.3952 48.0127C54.043 48.0127 53.7572 48.0657 53.5375 48.1717C53.3179 48.2777 53.157 48.4122 53.0547 48.575C52.9563 48.7378 52.907 48.9063 52.907 49.0805C52.907 49.2168 52.9279 49.3418 52.9695 49.4554C53.015 49.5652 53.0945 49.6674 53.2081 49.7621C53.3255 49.8568 53.4921 49.9458 53.7079 50.0291C53.9238 50.1124 54.204 50.1938 54.5486 50.2733C55.0446 50.3831 55.4498 50.5176 55.7641 50.6766C56.0822 50.8318 56.317 51.025 56.4684 51.256C56.6199 51.4832 56.6956 51.7596 56.6956 52.0852C56.6956 52.339 56.6426 52.5718 56.5366 52.7839C56.4306 52.9922 56.2772 53.172 56.0765 53.3235C55.8796 53.475 55.641 53.5923 55.3608 53.6757C55.0844 53.759 54.7739 53.8006 54.4293 53.8006C53.9105 53.8006 53.4713 53.7154 53.1115 53.545C52.7556 53.3708 52.4848 53.1436 52.2993 52.8634C52.1175 52.5794 52.0266 52.2784 52.0266 51.9603H52.7026C52.7253 52.2784 52.8256 52.5302 53.0036 52.7157C53.1816 52.8975 53.3993 53.0262 53.6568 53.102C53.9181 53.1777 54.1756 53.2156 54.4293 53.2156C54.7777 53.2156 55.0692 53.1644 55.304 53.0622C55.5388 52.96 55.7168 52.8255 55.8379 52.6589C55.9591 52.4923 56.0197 52.3124 56.0197 52.1193ZM60.558 47.5412V48.0979H57.4795V47.5412H60.558ZM58.6098 45.9622H59.2857V52.1932C59.2857 52.4772 59.3236 52.6911 59.3993 52.835C59.4751 52.9789 59.5735 53.0755 59.6947 53.1247C59.8159 53.1739 59.9465 53.1985 60.0866 53.1985C60.1888 53.1985 60.2873 53.1928 60.382 53.1815C60.4766 53.1663 60.5618 53.1512 60.6376 53.136L60.666 53.7097C60.5827 53.7362 60.4747 53.7571 60.3422 53.7722C60.2097 53.7911 60.0771 53.8006 59.9446 53.8006C59.6833 53.8006 59.4523 53.7533 59.2516 53.6586C59.0509 53.5602 58.8938 53.3935 58.7802 53.1588C58.6666 52.9202 58.6098 52.5964 58.6098 52.1875V45.9622ZM62.654 48.7227V56.0499H61.9724V47.5412H62.6085L62.654 48.7227ZM66.9254 50.5573V50.6766C66.9254 51.1348 66.8723 51.5551 66.7663 51.9376C66.6603 52.32 66.5069 52.6514 66.3062 52.9316C66.1093 53.208 65.8651 53.4219 65.5735 53.5734C65.2819 53.7249 64.9506 53.8006 64.5795 53.8006C64.2122 53.8006 63.8846 53.7438 63.5969 53.6302C63.3091 53.5166 63.061 53.3557 62.8528 53.1474C62.6483 52.9354 62.4836 52.6892 62.3586 52.409C62.2374 52.125 62.1522 51.8145 62.103 51.4775V49.9041C62.1598 49.533 62.2526 49.196 62.3813 48.8931C62.5101 48.5901 62.6748 48.3288 62.8755 48.1092C63.08 47.8896 63.3223 47.7211 63.6025 47.6037C63.8828 47.4863 64.2027 47.4276 64.5625 47.4276C64.9373 47.4276 65.2706 47.5015 65.5621 47.6491C65.8575 47.793 66.1055 48.0032 66.3062 48.2796C66.5107 48.5523 66.6641 48.8817 66.7663 49.2679C66.8723 49.6504 66.9254 50.0802 66.9254 50.5573ZM66.2438 50.6766V50.5573C66.2438 50.1976 66.2059 49.8644 66.1302 49.5576C66.0582 49.2509 65.9465 48.9839 65.795 48.7567C65.6473 48.5258 65.458 48.3459 65.227 48.2171C64.9998 48.0884 64.7291 48.024 64.4148 48.024C64.0891 48.024 63.8108 48.0789 63.5798 48.1887C63.3526 48.2948 63.1633 48.4368 63.0118 48.6147C62.8603 48.7889 62.7411 48.9802 62.654 49.1884C62.5669 49.3967 62.5025 49.6012 62.4609 49.8019V51.6138C62.5328 51.9016 62.6483 52.1686 62.8073 52.4147C62.9664 52.657 63.1784 52.852 63.4435 52.9997C63.7124 53.1436 64.0399 53.2156 64.4261 53.2156C64.7367 53.2156 65.0055 53.1512 65.2327 53.0224C65.4599 52.8937 65.6473 52.7138 65.795 52.4828C65.9465 52.2519 66.0582 51.983 66.1302 51.6763C66.2059 51.3696 66.2438 51.0363 66.2438 50.6766ZM69.1917 47.5412V53.687H68.5158V47.5412H69.1917ZM68.3965 45.7634C68.3965 45.6346 68.4362 45.5267 68.5158 45.4396C68.5991 45.3487 68.7127 45.3033 68.8566 45.3033C69.0005 45.3033 69.1141 45.3487 69.1974 45.4396C69.2845 45.5267 69.328 45.6346 69.328 45.7634C69.328 45.8883 69.2845 45.9963 69.1974 46.0871C69.1141 46.1742 69.0005 46.2178 68.8566 46.2178C68.7127 46.2178 68.5991 46.1742 68.5158 46.0871C68.4362 45.9963 68.3965 45.8883 68.3965 45.7634ZM71.8045 44.9625V53.687H71.1286V44.9625H71.8045ZM73.287 50.7107V50.5232C73.287 50.0764 73.3514 49.6637 73.4801 49.285C73.6089 48.9063 73.7925 48.5788 74.0311 48.3023C74.2734 48.0259 74.5631 47.812 74.9001 47.6605C75.2371 47.5052 75.612 47.4276 76.0248 47.4276C76.4413 47.4276 76.8181 47.5052 77.1551 47.6605C77.4921 47.812 77.7818 48.0259 78.0241 48.3023C78.2665 48.5788 78.452 48.9063 78.5808 49.285C78.7095 49.6637 78.7739 50.0764 78.7739 50.5232V50.7107C78.7739 51.1575 78.7095 51.5703 78.5808 51.9489C78.452 52.3238 78.2665 52.6495 78.0241 52.9259C77.7856 53.2023 77.4978 53.4182 77.1608 53.5734C76.8238 53.7249 76.4489 53.8006 76.0361 53.8006C75.6196 53.8006 75.2428 53.7249 74.9058 53.5734C74.5688 53.4182 74.2791 53.2023 74.0368 52.9259C73.7944 52.6495 73.6089 52.3238 73.4801 51.9489C73.3514 51.5703 73.287 51.1575 73.287 50.7107ZM73.9629 50.5232V50.7107C73.9629 51.0477 74.0084 51.3677 74.0992 51.6706C74.1901 51.9697 74.3227 52.2367 74.4968 52.4715C74.671 52.7025 74.8869 52.8842 75.1444 53.0168C75.4019 53.1493 75.6991 53.2156 76.0361 53.2156C76.3694 53.2156 76.6628 53.1493 76.9165 53.0168C77.174 52.8842 77.3899 52.7025 77.5641 52.4715C77.7382 52.2367 77.8689 51.9697 77.956 51.6706C78.0469 51.3677 78.0923 51.0477 78.0923 50.7107V50.5232C78.0923 50.19 78.0469 49.8738 77.956 49.5747C77.8689 49.2755 77.7364 49.0086 77.5584 48.7738C77.3842 48.539 77.1683 48.3535 76.9109 48.2171C76.6534 48.0808 76.358 48.0127 76.0248 48.0127C75.6915 48.0127 75.3962 48.0808 75.1387 48.2171C74.885 48.3535 74.6691 48.539 74.4912 48.7738C74.317 49.0086 74.1844 49.2755 74.0936 49.5747C74.0065 49.8738 73.9629 50.19 73.9629 50.5232ZM82.5057 47.5412V48.0979H79.4271V47.5412H82.5057ZM80.5574 45.9622H81.2333V52.1932C81.2333 52.4772 81.2712 52.6911 81.347 52.835C81.4227 52.9789 81.5211 53.0755 81.6423 53.1247C81.7635 53.1739 81.8941 53.1985 82.0342 53.1985C82.1365 53.1985 82.2349 53.1928 82.3296 53.1815C82.4243 53.1663 82.5095 53.1512 82.5852 53.136L82.6136 53.7097C82.5303 53.7362 82.4224 53.7571 82.2898 53.7722C82.1573 53.7911 82.0248 53.8006 81.8922 53.8006C81.631 53.8006 81.4 53.7533 81.1993 53.6586C80.9986 53.5602 80.8414 53.3935 80.7278 53.1588C80.6142 52.9202 80.5574 52.5964 80.5574 52.1875V45.9622ZM86.3965 50.7107V50.5232C86.3965 50.0764 86.4609 49.6637 86.5896 49.285C86.7184 48.9063 86.902 48.5788 87.1406 48.3023C87.3829 48.0259 87.6726 47.812 88.0096 47.6605C88.3466 47.5052 88.7215 47.4276 89.1343 47.4276C89.5508 47.4276 89.9276 47.5052 90.2646 47.6605C90.6016 47.812 90.8913 48.0259 91.1336 48.3023C91.376 48.5788 91.5615 48.9063 91.6903 49.285C91.819 49.6637 91.8834 50.0764 91.8834 50.5232V50.7107C91.8834 51.1575 91.819 51.5703 91.6903 51.9489C91.5615 52.3238 91.376 52.6495 91.1336 52.9259C90.8951 53.2023 90.6073 53.4182 90.2703 53.5734C89.9333 53.7249 89.5584 53.8006 89.1456 53.8006C88.7291 53.8006 88.3523 53.7249 88.0153 53.5734C87.6783 53.4182 87.3886 53.2023 87.1463 52.9259C86.9039 52.6495 86.7184 52.3238 86.5896 51.9489C86.4609 51.5703 86.3965 51.1575 86.3965 50.7107ZM87.0724 50.5232V50.7107C87.0724 51.0477 87.1179 51.3677 87.2087 51.6706C87.2996 51.9697 87.4322 52.2367 87.6063 52.4715C87.7805 52.7025 87.9964 52.8842 88.2539 53.0168C88.5114 53.1493 88.8086 53.2156 89.1456 53.2156C89.4789 53.2156 89.7723 53.1493 90.026 53.0168C90.2835 52.8842 90.4994 52.7025 90.6736 52.4715C90.8477 52.2367 90.9784 51.9697 91.0655 51.6706C91.1564 51.3677 91.2018 51.0477 91.2018 50.7107V50.5232C91.2018 50.19 91.1564 49.8738 91.0655 49.5747C90.9784 49.2755 90.8459 49.0086 90.6679 48.7738C90.4937 48.539 90.2779 48.3535 90.0204 48.2171C89.7629 48.0808 89.4675 48.0127 89.1343 48.0127C88.801 48.0127 88.5057 48.0808 88.2482 48.2171C87.9945 48.3535 87.7786 48.539 87.6007 48.7738C87.4265 49.0086 87.2939 49.2755 87.2031 49.5747C87.116 49.8738 87.0724 50.19 87.0724 50.5232ZM93.968 48.8533V53.687H93.2921V47.5412H93.9396L93.968 48.8533ZM93.8146 50.2336L93.5136 50.0632C93.5363 49.6996 93.6101 49.3588 93.7351 49.0407C93.8601 48.7227 94.0286 48.4425 94.2406 48.2001C94.4565 47.9578 94.7083 47.7684 94.9961 47.6321C95.2876 47.4958 95.6095 47.4276 95.9617 47.4276C96.2684 47.4276 96.5429 47.4693 96.7853 47.5526C97.0276 47.6359 97.234 47.7684 97.4044 47.9502C97.5748 48.1319 97.7035 48.3648 97.7906 48.6488C97.8815 48.9328 97.927 49.2793 97.927 49.6883V53.687H97.2454V49.6826C97.2454 49.2585 97.1867 48.9271 97.0693 48.6886C96.9519 48.4462 96.7853 48.2739 96.5694 48.1717C96.3536 48.0695 96.098 48.0183 95.8026 48.0183C95.477 48.0183 95.1911 48.0903 94.9449 48.2342C94.7026 48.3743 94.4981 48.5579 94.3315 48.7851C94.1687 49.0086 94.0437 49.249 93.9566 49.5065C93.8695 49.7602 93.8222 50.0026 93.8146 50.2336ZM108.054 50.5971V51.8808H102.096L102.017 50.8868L105.464 45.4169H106.765L105.356 47.7741L103.641 50.5971H108.054ZM107.117 45.4169V53.687H105.481V45.4169H107.117ZM110.48 49.9212L109.173 49.6088L109.645 45.4169H114.291V46.7403H110.991L110.787 48.575C110.896 48.5106 111.063 48.4425 111.286 48.3705C111.51 48.2948 111.76 48.2569 112.036 48.2569C112.438 48.2569 112.793 48.3194 113.104 48.4443C113.415 48.5693 113.678 48.7511 113.894 48.9896C114.113 49.2282 114.28 49.5198 114.393 49.8644C114.507 50.2089 114.564 50.599 114.564 51.0344C114.564 51.4017 114.507 51.752 114.393 52.0852C114.28 52.4147 114.107 52.71 113.876 52.9713C113.645 53.2288 113.356 53.4314 113.007 53.5791C112.659 53.7268 112.246 53.8006 111.769 53.8006C111.413 53.8006 111.069 53.7476 110.735 53.6416C110.406 53.5355 110.109 53.3784 109.844 53.1701C109.582 52.9619 109.372 52.71 109.213 52.4147C109.058 52.1155 108.977 51.7747 108.969 51.3923H110.593C110.616 51.6271 110.677 51.8296 110.775 52C110.877 52.1667 111.012 52.2954 111.178 52.3863C111.345 52.4772 111.54 52.5226 111.764 52.5226C111.972 52.5226 112.15 52.4828 112.297 52.4033C112.445 52.3238 112.564 52.214 112.655 52.0739C112.746 51.93 112.812 51.7634 112.854 51.574C112.9 51.3809 112.922 51.1727 112.922 50.9492C112.922 50.7258 112.896 50.5232 112.843 50.3415C112.79 50.1597 112.708 50.0026 112.598 49.87C112.489 49.7375 112.349 49.6353 112.178 49.5633C112.012 49.4914 111.817 49.4554 111.593 49.4554C111.29 49.4554 111.055 49.5027 110.889 49.5974C110.726 49.6921 110.59 49.8 110.48 49.9212ZM119.841 45.3317H120.079V46.6381H119.983C119.551 46.6381 119.166 46.7025 118.829 46.8312C118.492 46.96 118.207 47.1436 117.972 47.3822C117.741 47.617 117.563 47.901 117.438 48.2342C117.317 48.5674 117.256 48.9404 117.256 49.3531V50.7277C117.256 51.0231 117.285 51.2844 117.341 51.5116C117.402 51.735 117.487 51.9224 117.597 52.0739C117.711 52.2216 117.843 52.3333 117.995 52.409C118.146 52.481 118.316 52.5169 118.506 52.5169C118.684 52.5169 118.845 52.4791 118.989 52.4033C119.136 52.3276 119.261 52.2216 119.363 52.0852C119.469 51.9451 119.549 51.7823 119.602 51.5968C119.659 51.4074 119.687 51.2011 119.687 50.9776C119.687 50.7542 119.659 50.5478 119.602 50.3585C119.549 50.1692 119.469 50.0064 119.363 49.87C119.257 49.7299 119.129 49.622 118.977 49.5463C118.826 49.4705 118.655 49.4327 118.466 49.4327C118.208 49.4327 117.981 49.4933 117.784 49.6144C117.591 49.7318 117.44 49.8833 117.33 50.0688C117.22 50.2544 117.161 50.4494 117.154 50.6539L116.66 50.3358C116.671 50.0442 116.732 49.7678 116.841 49.5065C116.955 49.2452 117.11 49.0142 117.307 48.8135C117.508 48.6091 117.748 48.45 118.029 48.3364C118.309 48.219 118.625 48.1603 118.977 48.1603C119.363 48.1603 119.702 48.2342 119.994 48.3819C120.289 48.5295 120.535 48.7321 120.732 48.9896C120.929 49.2471 121.077 49.5444 121.175 49.8814C121.274 50.2184 121.323 50.5781 121.323 50.9606C121.323 51.362 121.257 51.735 121.124 52.0796C120.995 52.4242 120.808 52.7252 120.562 52.9827C120.32 53.2402 120.028 53.4409 119.687 53.5848C119.346 53.7287 118.964 53.8006 118.54 53.8006C118.101 53.8006 117.701 53.7211 117.341 53.5621C116.985 53.3992 116.679 53.172 116.421 52.8804C116.164 52.5889 115.965 52.2424 115.825 51.841C115.688 51.4396 115.62 51.0004 115.62 50.5232V49.8871C115.62 49.2206 115.717 48.611 115.91 48.0581C116.107 47.5015 116.389 47.0205 116.756 46.6154C117.124 46.2064 117.567 45.8902 118.085 45.6668C118.604 45.4434 119.189 45.3317 119.841 45.3317ZM126.901 48.8817V53.687H125.265V47.5412H126.804L126.901 48.8817ZM128.752 47.5015L128.724 49.018C128.645 49.0067 128.548 48.9972 128.434 48.9896C128.325 48.9783 128.224 48.9726 128.133 48.9726C127.902 48.9726 127.702 49.0029 127.531 49.0635C127.365 49.1203 127.225 49.2055 127.111 49.3191C127.001 49.4327 126.918 49.5709 126.861 49.7337C126.808 49.8965 126.778 50.0821 126.77 50.2904L126.441 50.1881C126.441 49.7905 126.48 49.4251 126.56 49.0919C126.64 48.7549 126.755 48.4614 126.906 48.2115C127.062 47.9615 127.251 47.7684 127.474 47.6321C127.698 47.4958 127.953 47.4276 128.241 47.4276C128.332 47.4276 128.425 47.4352 128.52 47.4503C128.614 47.4617 128.692 47.4787 128.752 47.5015ZM132.24 53.8006C131.763 53.8006 131.335 53.7249 130.956 53.5734C130.578 53.4182 130.256 53.2042 129.991 52.9316C129.729 52.6589 129.529 52.3427 129.389 51.983C129.249 51.6195 129.178 51.2332 129.178 50.8243V50.5971C129.178 50.1313 129.245 49.7053 129.377 49.3191C129.51 48.9328 129.699 48.5977 129.945 48.3137C130.195 48.0297 130.498 47.812 130.854 47.6605C131.21 47.5052 131.611 47.4276 132.058 47.4276C132.494 47.4276 132.88 47.4996 133.217 47.6435C133.554 47.7874 133.836 47.9918 134.063 48.2569C134.294 48.522 134.468 48.8401 134.586 49.2111C134.703 49.5785 134.762 49.9874 134.762 50.438V51.1196H129.877V50.0291H133.155V49.9041C133.155 49.6769 133.113 49.4743 133.03 49.2963C132.95 49.1146 132.829 48.9707 132.666 48.8647C132.503 48.7586 132.295 48.7056 132.041 48.7056C131.825 48.7056 131.64 48.753 131.485 48.8476C131.329 48.9423 131.202 49.0748 131.104 49.2452C131.009 49.4156 130.937 49.6163 130.888 49.8473C130.843 50.0745 130.82 50.3244 130.82 50.5971V50.8243C130.82 51.0704 130.854 51.2976 130.922 51.5059C130.994 51.7141 131.095 51.894 131.223 52.0455C131.356 52.197 131.515 52.3143 131.7 52.3976C131.89 52.481 132.104 52.5226 132.342 52.5226C132.638 52.5226 132.912 52.4658 133.166 52.3522C133.423 52.2348 133.645 52.0587 133.83 51.824L134.626 52.6873C134.497 52.8729 134.321 53.0508 134.097 53.2212C133.878 53.3917 133.613 53.5318 133.302 53.6416C132.992 53.7476 132.638 53.8006 132.24 53.8006ZM137.704 52.4942L139.067 47.5412H140.777L138.704 53.687H137.67L137.704 52.4942ZM136.767 47.5412L138.136 52.4999L138.164 53.687H137.125L135.052 47.5412H136.767ZM143.237 47.5412V53.687H141.595V47.5412H143.237ZM141.493 45.9395C141.493 45.7009 141.576 45.504 141.743 45.3487C141.909 45.1935 142.133 45.1158 142.413 45.1158C142.689 45.1158 142.911 45.1935 143.078 45.3487C143.248 45.504 143.333 45.7009 143.333 45.9395C143.333 46.178 143.248 46.3749 143.078 46.5302C142.911 46.6854 142.689 46.7631 142.413 46.7631C142.133 46.7631 141.909 46.6854 141.743 46.5302C141.576 46.3749 141.493 46.178 141.493 45.9395ZM147.417 53.8006C146.94 53.8006 146.512 53.7249 146.133 53.5734C145.755 53.4182 145.433 53.2042 145.168 52.9316C144.906 52.6589 144.706 52.3427 144.566 51.983C144.426 51.6195 144.356 51.2332 144.356 50.8243V50.5971C144.356 50.1313 144.422 49.7053 144.554 49.3191C144.687 48.9328 144.876 48.5977 145.122 48.3137C145.372 48.0297 145.675 47.812 146.031 47.6605C146.387 47.5052 146.788 47.4276 147.235 47.4276C147.671 47.4276 148.057 47.4996 148.394 47.6435C148.731 47.7874 149.013 47.9918 149.24 48.2569C149.471 48.522 149.646 48.8401 149.763 49.2111C149.88 49.5785 149.939 49.9874 149.939 50.438V51.1196H145.054V50.0291H148.332V49.9041C148.332 49.6769 148.29 49.4743 148.207 49.2963C148.127 49.1146 148.006 48.9707 147.843 48.8647C147.68 48.7586 147.472 48.7056 147.218 48.7056C147.002 48.7056 146.817 48.753 146.662 48.8476C146.506 48.9423 146.38 49.0748 146.281 49.2452C146.186 49.4156 146.114 49.6163 146.065 49.8473C146.02 50.0745 145.997 50.3244 145.997 50.5971V50.8243C145.997 51.0704 146.031 51.2976 146.099 51.5059C146.171 51.7141 146.272 51.894 146.4 52.0455C146.533 52.197 146.692 52.3143 146.877 52.3976C147.067 52.481 147.281 52.5226 147.519 52.5226C147.815 52.5226 148.089 52.4658 148.343 52.3522C148.6 52.2348 148.822 52.0587 149.007 51.824L149.803 52.6873C149.674 52.8729 149.498 53.0508 149.274 53.2212C149.055 53.3917 148.79 53.5318 148.479 53.6416C148.169 53.7476 147.815 53.8006 147.417 53.8006ZM152.626 52.0966L153.904 47.5412H154.943L154.608 49.3304L153.33 53.687H152.461L152.626 52.0966ZM151.978 47.5412L152.893 52.0909L152.978 53.687H151.955L150.399 47.5412H151.978ZM156.113 52.0171L157.005 47.5412H158.59L157.033 53.687H156.017L156.113 52.0171ZM155.085 47.5412L156.357 52.0625L156.534 53.687H155.659L154.381 49.3361L154.057 47.5412H155.085ZM162.736 51.9887C162.736 51.8713 162.702 51.7653 162.634 51.6706C162.566 51.5759 162.439 51.4888 162.253 51.4093C162.072 51.326 161.808 51.2503 161.464 51.1821C161.153 51.114 160.864 51.0288 160.595 50.9265C160.33 50.8205 160.099 50.6936 159.902 50.546C159.709 50.3983 159.557 50.2241 159.447 50.0234C159.338 49.8189 159.283 49.586 159.283 49.3247C159.283 49.0673 159.338 48.8249 159.447 48.5977C159.561 48.3705 159.722 48.1698 159.93 47.9956C160.142 47.8176 160.4 47.6794 160.703 47.581C161.009 47.4787 161.354 47.4276 161.736 47.4276C162.27 47.4276 162.729 47.5128 163.111 47.6832C163.497 47.8536 163.793 48.0884 163.997 48.3875C164.205 48.6829 164.309 49.0199 164.309 49.3986H162.674C162.674 49.2395 162.64 49.0975 162.571 48.9726C162.507 48.8438 162.405 48.7435 162.265 48.6715C162.128 48.5958 161.95 48.5579 161.731 48.5579C161.549 48.5579 161.392 48.5901 161.259 48.6545C161.127 48.7151 161.025 48.7984 160.953 48.9044C160.884 49.0067 160.85 49.1203 160.85 49.2452C160.85 49.3399 160.869 49.4251 160.907 49.5008C160.949 49.5728 161.015 49.639 161.106 49.6996C161.197 49.7602 161.314 49.817 161.458 49.87C161.606 49.9193 161.788 49.9647 162.003 50.0064C162.446 50.0972 162.842 50.2165 163.191 50.3642C163.539 50.5081 163.815 50.705 164.02 50.9549C164.224 51.2011 164.327 51.5248 164.327 51.9262C164.327 52.1988 164.266 52.4488 164.145 52.676C164.024 52.9032 163.849 53.102 163.622 53.2724C163.395 53.439 163.122 53.5696 162.804 53.6643C162.49 53.7552 162.136 53.8006 161.742 53.8006C161.17 53.8006 160.686 53.6984 160.288 53.4939C159.894 53.2894 159.595 53.03 159.391 52.7157C159.19 52.3976 159.09 52.072 159.09 51.7388H160.64C160.648 51.9622 160.705 52.142 160.811 52.2784C160.92 52.4147 161.059 52.5131 161.225 52.5737C161.396 52.6343 161.579 52.6646 161.776 52.6646C161.988 52.6646 162.164 52.6362 162.304 52.5794C162.445 52.5188 162.551 52.4393 162.623 52.3408C162.698 52.2386 162.736 52.1212 162.736 51.9887Z" fill="black"/>
<path d="M98.796 54.823H164.753V55.391H98.796V54.823Z" fill="black"/>
</svg>
