<svg width="138" height="17" viewBox="0 0 138 17" fill="none" xmlns="http://www.w3.org/2000/svg">
<path d="M9 0L11.7255 5.67208L18 6.49342L13.41 10.8203L14.5623 17L9 14.0021L3.43769 17L4.59 10.8203L0 6.49342L6.27447 5.67208L9 0Z" fill="#010A12"/>
<path d="M39 0L41.7255 5.67208L48 6.49342L43.41 10.8203L44.5623 17L39 14.0021L33.4377 17L34.59 10.8203L30 6.49342L36.2745 5.67208L39 0Z" fill="#010A12"/>
<path d="M69 0L71.7255 5.67208L78 6.49342L73.41 10.8203L74.5623 17L69 14.0021L63.4377 17L64.59 10.8203L60 6.49342L66.2745 5.67208L69 0Z" fill="#010A12"/>
<path d="M99 0L101.726 5.67208L108 6.49342L103.41 10.8203L104.562 17L99 14.0021L93.4377 17L94.59 10.8203L90 6.49342L96.2745 5.67208L99 0Z" fill="#010A12"/>
<path d="M129 0L131.726 5.67208L138 6.49342L133.41 10.8203L134.562 17L129 14.0021L123.438 17L124.59 10.8203L120 6.49342L126.274 5.67208L129 0Z" fill="#010A12"/>
</svg>
