<svg width="36" height="36" viewBox="0 0 36 36" fill="none" xmlns="http://www.w3.org/2000/svg">
<rect x="36" y="36" width="36" height="36" rx="18" transform="rotate(-180 36 36)" fill="#010A12" fill-opacity="0.06"/>
<path d="M24 18.6C24.3314 18.6 24.6 18.3314 24.6 18C24.6 17.6686 24.3314 17.4 24 17.4V18.6ZM11.5757 17.5757C11.3414 17.8101 11.3414 18.1899 11.5757 18.4243L15.3941 22.2426C15.6284 22.477 16.0083 22.477 16.2426 22.2426C16.477 22.0083 16.477 21.6284 16.2426 21.3941L12.8485 18L16.2426 14.6059C16.477 14.3716 16.477 13.9917 16.2426 13.7574C16.0083 13.523 15.6284 13.523 15.3941 13.7574L11.5757 17.5757ZM24 18V17.4H12V18V18.6H24V18Z" fill="#010A12"/>
</svg>
