<svg width="36" height="36" viewBox="0 0 36 36" fill="none" xmlns="http://www.w3.org/2000/svg">
<rect width="36" height="36" rx="18" fill="#010A12" fill-opacity="0.06"/>
<path d="M12 17.4C11.6686 17.4 11.4 17.6686 11.4 18C11.4 18.3314 11.6686 18.6 12 18.6L12 17.4ZM24.4243 18.4243C24.6586 18.1899 24.6586 17.81 24.4243 17.5757L20.6059 13.7574C20.3716 13.523 19.9917 13.523 19.7574 13.7574C19.523 13.9917 19.523 14.3716 19.7574 14.6059L23.1515 18L19.7574 21.3941C19.523 21.6284 19.523 22.0083 19.7574 22.2426C19.9917 22.477 20.3716 22.477 20.6059 22.2426L24.4243 18.4243ZM12 18L12 18.6L24 18.6L24 18L24 17.4L12 17.4L12 18Z" fill="#010A12"/>
</svg>
