<svg width="22" height="22" viewBox="0 0 22 22" fill="none" xmlns="http://www.w3.org/2000/svg">
<g opacity="0.72">
<path fill-rule="evenodd" clip-rule="evenodd" d="M0 11C0 4.92487 4.92487 0 11 0C17.0751 0 22 4.92487 22 11C22 17.0751 17.0751 22 11 22C4.92487 22 0 17.0751 0 11ZM11.0006 5.13333C9.40724 5.13333 9.20729 5.1403 8.5815 5.16878C7.95694 5.19738 7.53062 5.29626 7.1576 5.44134C6.77174 5.59118 6.44442 5.79163 6.11833 6.11784C5.792 6.44394 5.59155 6.77125 5.44121 7.15699C5.29577 7.53014 5.19677 7.95657 5.16866 8.58089C5.14067 9.20668 5.13333 9.40676 5.13333 11.0001C5.13333 12.5934 5.14042 12.7927 5.16878 13.4185C5.1975 14.0431 5.29638 14.4694 5.44134 14.8424C5.5913 15.2283 5.79175 15.5556 6.11797 15.8817C6.44394 16.208 6.77125 16.4089 7.15687 16.5588C7.53014 16.7039 7.95657 16.8027 8.58101 16.8313C9.2068 16.8598 9.40663 16.8668 10.9998 16.8668C12.5932 16.8668 12.7926 16.8598 13.4184 16.8313C14.0429 16.8027 14.4697 16.7039 14.843 16.5588C15.2288 16.4089 15.5556 16.208 15.8815 15.8817C16.2079 15.5556 16.4083 15.2283 16.5587 14.8425C16.7029 14.4694 16.8019 14.0429 16.8312 13.4186C16.8593 12.7928 16.8667 12.5934 16.8667 11.0001C16.8667 9.40676 16.8593 9.2068 16.8312 8.58101C16.8019 7.95645 16.7029 7.53014 16.5587 7.15711C16.4083 6.77125 16.2079 6.44394 15.8815 6.11784C15.5552 5.79151 15.2289 5.59106 14.8426 5.44134C14.4686 5.29626 14.0421 5.19738 13.4175 5.16878C12.7917 5.1403 12.5925 5.13333 10.9987 5.13333H11.0006Z" fill="white"/>
<path fill-rule="evenodd" clip-rule="evenodd" d="M10.4743 6.19057C10.6305 6.19032 10.8047 6.19057 11.0006 6.19057C12.567 6.19057 12.7526 6.19619 13.3712 6.2243C13.9432 6.25046 14.2537 6.34604 14.4605 6.42634C14.7342 6.53267 14.9294 6.65978 15.1346 6.86512C15.34 7.07045 15.4671 7.26601 15.5737 7.53979C15.654 7.74635 15.7497 8.0568 15.7757 8.6288C15.8038 9.24725 15.8099 9.43303 15.8099 10.9987C15.8099 12.5644 15.8038 12.7502 15.7757 13.3686C15.7495 13.9406 15.654 14.2511 15.5737 14.4576C15.4673 14.7314 15.34 14.9264 15.1346 15.1316C14.9293 15.3369 14.7344 15.464 14.4605 15.5704C14.2539 15.651 13.9432 15.7464 13.3712 15.7725C12.7527 15.8006 12.567 15.8067 11.0006 15.8067C9.43401 15.8067 9.24835 15.8006 8.6299 15.7725C8.0579 15.7461 7.74745 15.6505 7.54053 15.5702C7.26674 15.4639 7.07119 15.3368 6.86585 15.1315C6.66052 14.9261 6.5334 14.7311 6.42682 14.4572C6.34652 14.2506 6.25082 13.9401 6.22479 13.3681C6.19668 12.7497 6.19106 12.5639 6.19106 10.9972C6.19106 9.43059 6.19668 9.24579 6.22479 8.62734C6.25095 8.05533 6.34652 7.74488 6.42682 7.53808C6.53316 7.2643 6.66052 7.06874 6.86585 6.86341C7.07119 6.65807 7.26674 6.53096 7.54053 6.42438C7.74733 6.34371 8.0579 6.24838 8.6299 6.2221C9.17111 6.19766 9.38084 6.19032 10.4743 6.1891V6.19057ZM14.1322 7.16469C13.7435 7.16469 13.4282 7.47966 13.4282 7.86845C13.4282 8.25712 13.7435 8.57246 14.1322 8.57246C14.5208 8.57246 14.8362 8.25712 14.8362 7.86845C14.8362 7.47978 14.5208 7.16469 14.1322 7.16469ZM11.0006 7.98725C9.33672 7.98725 7.98774 9.33623 7.98774 11.0001C7.98774 12.6639 9.33672 14.0123 11.0006 14.0123C12.6644 14.0123 14.0129 12.6639 14.0129 11.0001C14.0129 9.33623 12.6644 7.98725 11.0006 7.98725Z" fill="white"/>
<path fill-rule="evenodd" clip-rule="evenodd" d="M11.0006 9.04449C12.0805 9.04449 12.9561 9.91997 12.9561 11.0001C12.9561 12.08 12.0805 12.9556 11.0006 12.9556C9.92046 12.9556 9.04497 12.08 9.04497 11.0001C9.04497 9.91997 9.92046 9.04449 11.0006 9.04449Z" fill="white"/>
</g>
</svg>
