<svg width="89" height="34" viewBox="0 0 89 34" fill="none" xmlns="http://www.w3.org/2000/svg">
<g clip-path="url(#clip0_2_7208)">
<path d="M69.895 11.1066H77.9462C77.9462 15.2296 74.5494 18.5684 70.3548 18.5684C70.199 18.5684 70.047 18.5647 69.895 18.5534V11.1066Z" fill="white"/>
<path d="M86.0047 11.1066V18.6281H86.0009V18.5534C85.8489 18.5647 85.6931 18.5684 85.5373 18.5684C81.3465 18.5684 77.9459 15.2296 77.9459 11.1066H86.0047Z" fill="white"/>
<path d="M88.9187 11.1068H77.9495C79.0058 11.1068 79.8645 10.2628 79.8645 9.22455C79.8645 8.18632 79.0058 7.34229 77.9495 7.34229C76.8933 7.34229 76.0346 8.18259 76.0346 9.22455C76.0346 10.2665 76.8857 11.1031 77.9457 11.1068H66.9766L77.9495 0L88.9187 11.1068Z" fill="white"/>
</g>
<path d="M58.1262 28.5086L58.3697 27.8268L53.5 15.4578H56.1296L59.5871 24.6128L63.0203 15.4578H65.6255L60.3906 28.9468C59.6358 30.8947 58.7106 33.0374 55.7644 33.0374C55.1313 33.0374 54.3765 32.9643 53.7435 32.7696V30.6269C54.6931 30.9191 55.18 30.9678 55.6183 30.9678C57.1279 30.9678 57.6879 29.7017 58.1262 28.5086Z" fill="white"/>
<path d="M49.0497 27.8268V10.7585H51.6063V27.8268H49.0497Z" fill="white"/>
<path d="M41.3251 24.2232V17.4057H39.4746V15.7256L41.3251 15.4578L42.0555 12.2194H43.906V15.4578H46.5357V17.4544H43.906V24.1502C43.906 25.1485 44.2469 26.0007 45.513 26.0007C45.9026 26.0007 46.3165 25.952 46.9983 25.7815V27.8999C46.4383 28.0216 45.7565 28.0703 45.2208 28.0703C42.4695 28.0703 41.3251 26.2442 41.3251 24.2232Z" fill="white"/>
<path d="M27.1227 15.4578H29.4601C29.6062 15.9935 29.728 16.5292 29.801 17.0648C30.7263 15.9935 32.0411 15.2387 33.575 15.2387C36.156 15.2387 37.8847 17.0648 37.8847 19.8406V27.8269H35.3038V20.084C35.3038 18.404 34.3785 17.357 32.9663 17.357C31.1158 17.357 29.8497 18.6231 29.8497 20.6441V27.8269H27.2931V19.0614C27.2931 17.2596 27.2444 16.4074 27.1227 15.4578Z" fill="white"/>
<path d="M13.1575 21.6179C13.1575 17.8682 15.641 15.2143 19.1715 15.2143C22.7021 15.2143 25.1613 17.8682 25.1613 21.6179V22.2753H15.7628C15.9819 24.5154 17.2724 25.8789 19.1715 25.8789C20.6811 25.8789 21.8742 25.051 22.3612 23.6388L24.7717 24.1745C24.0899 26.4633 21.996 28.0216 19.1715 28.0216C15.641 28.0216 13.1575 25.3676 13.1575 21.6179ZM19.1715 17.3569C17.4185 17.3569 16.201 18.5013 15.8358 20.4005H22.4829C22.1664 18.5013 20.9003 17.3569 19.1715 17.3569Z" fill="white"/>
<path d="M9.56895 15.4578H12.1986L7.40193 27.8268H4.79665L0 15.4578H2.62964L6.08712 24.8076L9.56895 15.4578Z" fill="white"/>
<defs>
<clipPath id="clip0_2_7208">
<rect width="21.9422" height="18.8304" fill="white" transform="translate(66.9766)"/>
</clipPath>
</defs>
</svg>
