<svg width="96" height="36" viewBox="0 0 96 36" fill="none" xmlns="http://www.w3.org/2000/svg">
<g clip-path="url(#clip0_2_5947)">
<path d="M75.0027 12.1026H83.695C83.695 16.5953 80.0277 20.2335 75.499 20.2335C75.3309 20.2335 75.1668 20.2294 75.0027 20.2172V12.1026Z" fill="#010A12"/>
<path d="M92.3954 12.1026V20.2986H92.3913V20.2172C92.2272 20.2294 92.059 20.2335 91.8908 20.2335C87.3662 20.2335 83.6948 16.5953 83.6948 12.1026H92.3954Z" fill="#010A12"/>
<path d="M95.5414 12.1028H83.6986C84.839 12.1028 85.7661 11.1831 85.7661 10.0518C85.7661 8.92043 84.839 8.00071 83.6986 8.00071C82.5583 8.00071 81.6312 8.91636 81.6312 10.0518C81.6312 11.1872 82.5501 12.0987 83.6945 12.1028H71.8518L83.6986 0L95.5414 12.1028Z" fill="#010A12"/>
</g>
<path d="M62.7551 31.0651L63.018 30.3222L57.7605 16.844H60.5996L64.3324 26.82L68.0389 16.844H70.8517L65.1999 31.5426C64.385 33.6652 63.386 36 60.2052 36C59.5218 36 58.7068 35.9204 58.0234 35.7082V33.3733C59.0486 33.6917 59.5743 33.7448 60.0475 33.7448C61.6773 33.7448 62.282 32.3651 62.7551 31.0651Z" fill="#010A12"/>
<path d="M52.9558 30.3222V11.7233H55.716V30.3222H52.9558Z" fill="#010A12"/>
<path d="M44.616 26.3954V18.9665H42.6182V17.1358L44.616 16.844L45.4046 13.3152H47.4025V16.844H50.2415V19.0196H47.4025V26.3159C47.4025 27.4037 47.7705 28.3323 49.1375 28.3323C49.5581 28.3323 50.005 28.2792 50.741 28.0935V30.4018C50.1364 30.5344 49.4003 30.5875 48.822 30.5875C45.8515 30.5875 44.616 28.5976 44.616 26.3954Z" fill="#010A12"/>
<path d="M29.2825 16.844H31.8061C31.9638 17.4277 32.0952 18.0114 32.1741 18.5951C33.173 17.4277 34.5926 16.6052 36.2487 16.6052C39.0351 16.6052 40.9016 18.5951 40.9016 21.6198V30.3222H38.1151V21.8851C38.1151 20.0544 37.1161 18.9135 35.5915 18.9135C33.5936 18.9135 32.2267 20.2932 32.2267 22.4953V30.3222H29.4665V20.7707C29.4665 18.8074 29.4139 17.8788 29.2825 16.844Z" fill="#010A12"/>
<path d="M14.2053 23.5565C14.2053 19.4706 16.8866 16.5786 20.6983 16.5786C24.51 16.5786 27.1651 19.4706 27.1651 23.5565V24.2729H17.0181C17.2547 26.7138 18.6479 28.1996 20.6983 28.1996C22.3282 28.1996 23.6163 27.2975 24.142 25.7587L26.7445 26.3424C26.0084 28.8364 23.7477 30.5344 20.6983 30.5344C16.8866 30.5344 14.2053 27.6424 14.2053 23.5565ZM20.6983 18.9134C18.8056 18.9134 17.4913 20.1604 17.0969 22.2299H24.2734C23.9317 20.1604 22.5648 18.9134 20.6983 18.9134Z" fill="#010A12"/>
<path d="M10.331 16.844H13.17L7.99141 30.3222H5.17864L0 16.844H2.83905L6.57188 27.0322L10.331 16.844Z" fill="#010A12"/>
<defs>
<clipPath id="clip0_2_5947">
<rect width="23.6896" height="20.519" fill="white" transform="translate(71.8518)"/>
</clipPath>
</defs>
</svg>
