<svg width="22" height="22" viewBox="0 0 22 22" fill="none" xmlns="http://www.w3.org/2000/svg">
<g opacity="0.72">
<path fill-rule="evenodd" clip-rule="evenodd" d="M0 11C0 4.92487 4.92487 0 11 0C17.0751 0 22 4.92487 22 11C22 17.0751 17.0751 22 11 22C4.92487 22 0 17.0751 0 11ZM16.6215 8.28356C16.4865 7.76518 16.0889 7.35698 15.5841 7.21844C14.6691 6.96667 11 6.96667 11 6.96667C11 6.96667 7.33087 6.96667 6.41587 7.21844C5.911 7.35698 5.5134 7.76518 5.37847 8.28356C5.13333 9.22306 5.13333 11.1833 5.13333 11.1833C5.13333 11.1833 5.13333 13.1435 5.37847 14.0831C5.5134 14.6015 5.911 15.0097 6.41587 15.1483C7.33087 15.4 11 15.4 11 15.4C11 15.4 14.6691 15.4 15.5841 15.1483C16.0889 15.0097 16.4865 14.6015 16.6215 14.0831C16.8667 13.1435 16.8667 11.1833 16.8667 11.1833C16.8667 11.1833 16.8667 9.22306 16.6215 8.28356Z" fill="white"/>
<path fill-rule="evenodd" clip-rule="evenodd" d="M9.8999 13.1999V9.5332L12.8332 11.3666L9.8999 13.1999Z" fill="white"/>
</g>
</svg>
